<?xml version="1.0" encoding="UTF-8" standalone="no"?> <!-- Created with Vectornator for iOS (http://vectornator.io/) --><!DOCTYPE svg PUBLIC "-//W3C//DTD SVG 1.1//EN" "http://www.w3.org/Graphics/SVG/1.1/DTD/svg11.dtd">
<svg style="fill-rule:evenodd;clip-rule:evenodd;stroke-linecap:round;stroke-linejoin:round;" xmlns:vectornator="http://vectornator.io" xmlns:xlink="http://www.w3.org/1999/xlink" xmlns="http://www.w3.org/2000/svg" xml:space="preserve" version="1.1" viewBox="0 0 1024 1024">
<metadata>
<vectornator:setting key="DimensionsVisible" value="1"/>
<vectornator:setting key="SnapToGrid" value="0"/>
<vectornator:setting key="SnapToPoints" value="0"/>
<vectornator:setting key="GuidesVisible" value="1"/>
<vectornator:setting key="RulersVisible" value="1"/>
<vectornator:setting key="SnapToEdges" value="0"/>
<vectornator:setting key="DisplayWhiteBackground" value="0"/>
<vectornator:setting key="SnapToGuides" value="1"/>
<vectornator:setting key="GridSpacing" value="36"/>
<vectornator:setting key="Units" value="Pixels"/>
<vectornator:setting key="DynamicGuides" value="0"/>
<vectornator:setting key="New" value="1"/>
</metadata>
<defs/>
<g id="Layer 1" vectornator:layerName="Layer 1">
<path stroke="#000000" stroke-width="1" d="M164.147+662.707L248.733+662.707L248.733+747.293L164.147+747.293L164.147+662.707Z" fill="#2d2727" stroke-linecap="butt" opacity="1" stroke-linejoin="round"/>
<path stroke="#000000" stroke-width="1" d="M358.894+662.707L443.48+662.707L443.48+747.293L358.894+747.293L358.894+662.707Z" fill="#2d2727" stroke-linecap="butt" opacity="1" stroke-linejoin="round"/>
<path stroke="#000000" stroke-width="1" d="M261.521+662.707L346.106+662.707L346.106+747.293L261.521+747.293L261.521+662.707Z" fill="#2d2727" stroke-linecap="butt" opacity="1" stroke-linejoin="round"/>
<path stroke="#000000" stroke-width="1" d="M553.641+662.707L638.227+662.707L638.227+747.293L553.641+747.293L553.641+662.707Z" fill="#2d2727" stroke-linecap="butt" opacity="1" stroke-linejoin="round"/>
<path stroke="#000000" stroke-width="1" d="M456.268+662.707L540.854+662.707L540.854+747.293L456.268+747.293L456.268+662.707Z" fill="#2d2727" stroke-linecap="butt" opacity="1" stroke-linejoin="round"/>
<path stroke="#000000" stroke-width="1" d="M748.388+662.707L832.974+662.707L832.974+747.293L748.388+747.293L748.388+662.707Z" fill="#2d2727" stroke-linecap="butt" opacity="1" stroke-linejoin="round"/>
<path stroke="#000000" stroke-width="1" d="M651.015+662.707L735.601+662.707L735.601+747.293L651.015+747.293L651.015+662.707Z" fill="#2d2727" stroke-linecap="butt" opacity="1" stroke-linejoin="round"/>
<path stroke="#000000" stroke-width="1" d="M66.7734+662.707L151.359+662.707L151.359+747.293L66.7734+747.293L66.7734+662.707Z" fill="#2d2727" stroke-linecap="butt" opacity="1" stroke-linejoin="round"/>
<path stroke="#000000" stroke-width="1" d="M845.762+662.707L930.348+662.707L930.348+747.293L845.762+747.293L845.762+662.707Z" fill="#2d2727" stroke-linecap="butt" opacity="1" stroke-linejoin="round"/>
<path stroke="#000000" stroke-width="1" d="M164.086+562.949L248.672+562.949L248.672+647.535L164.086+647.535L164.086+562.949Z" fill="#4a4a4a" stroke-linecap="butt" opacity="1" stroke-linejoin="round"/>
<path stroke="#000000" stroke-width="1" d="M358.833+562.949L443.419+562.949L443.419+647.535L358.833+647.535L358.833+562.949Z" fill="#4a4a4a" stroke-linecap="butt" opacity="1" stroke-linejoin="round"/>
<path stroke="#000000" stroke-width="1" d="M261.46+562.949L346.046+562.949L346.046+647.535L261.46+647.535L261.46+562.949Z" fill="#4a4a4a" stroke-linecap="butt" opacity="1" stroke-linejoin="round"/>
<path stroke="#000000" stroke-width="1" d="M553.581+562.949L638.167+562.949L638.167+647.535L553.581+647.535L553.581+562.949Z" fill="#4a4a4a" stroke-linecap="butt" opacity="1" stroke-linejoin="round"/>
<path stroke="#000000" stroke-width="1" d="M456.207+562.949L540.793+562.949L540.793+647.535L456.207+647.535L456.207+562.949Z" fill="#4a4a4a" stroke-linecap="butt" opacity="1" stroke-linejoin="round"/>
<path stroke="#000000" stroke-width="1" d="M748.328+562.949L832.914+562.949L832.914+647.535L748.328+647.535L748.328+562.949Z" fill="#4a4a4a" stroke-linecap="butt" opacity="1" stroke-linejoin="round"/>
<path stroke="#000000" stroke-width="1" d="M650.954+562.949L735.54+562.949L735.54+647.535L650.954+647.535L650.954+562.949Z" fill="#4a4a4a" stroke-linecap="butt" opacity="1" stroke-linejoin="round"/>
<path stroke="#000000" stroke-width="1" d="M66.7129+562.949L151.299+562.949L151.299+647.535L66.7129+647.535L66.7129+562.949Z" fill="#4a4a4a" stroke-linecap="butt" opacity="1" stroke-linejoin="round"/>
<path stroke="#000000" stroke-width="1" d="M845.701+562.949L930.287+562.949L930.287+647.535L845.701+647.535L845.701+562.949Z" fill="#4a4a4a" stroke-linecap="butt" opacity="1" stroke-linejoin="round"/>
<text x="0" font-family="Avenir-Heavy" y="0" text-anchor="start" vectornator:text="-2" fill="#53d246" font-size="44" vectornator:width="78.4453" opacity="1" transform="matrix(1 0 0 1 81.578 671.796)">
<tspan x="0" y="44" textLength="39.908">
-2</tspan>
</text>
<text x="0" font-family="Avenir-Heavy" y="0" text-anchor="start" vectornator:text="1" fill="#53d246" font-size="44" vectornator:width="78.4453" opacity="1" transform="matrix(1 0 0 1 193.674 674.029)">
<tspan x="0" y="44" textLength="26.048">
1</tspan>
</text>
<text x="0" font-family="Avenir-Heavy" y="0" text-anchor="start" vectornator:text="-2" fill="#53d246" font-size="44" vectornator:width="78.4453" opacity="1" transform="matrix(1 0 0 1 278.84 668.914)">
<tspan x="0" y="44" textLength="39.908">
-2</tspan>
</text>
<text x="0" font-family="Avenir-Heavy" y="0" text-anchor="start" vectornator:text="4" fill="#53d246" font-size="44" vectornator:width="78.4453" opacity="1" transform="matrix(1 0 0 1 387.36 670.516)">
<tspan x="0" y="44" textLength="26.048">
4</tspan>
</text>
<text x="0" font-family="Avenir-Heavy" y="0" text-anchor="start" vectornator:text="3" fill="#53d246" font-size="44" vectornator:width="78.4453" opacity="1" transform="matrix(1 0 0 1 485.34 670.457)">
<tspan x="0" y="44" textLength="26.048">
3</tspan>
</text>
<text x="0" font-family="Avenir-Heavy" y="0" text-anchor="start" vectornator:text="5" fill="#53d246" font-size="44" vectornator:width="78.4453" opacity="1" transform="matrix(1 0 0 1 577.381 668.835)">
<tspan x="0" y="44" textLength="26.048">
5</tspan>
</text>
<text x="0" font-family="Avenir-Heavy" y="0" text-anchor="start" vectornator:text="6" fill="#53d246" font-size="44" vectornator:width="78.4453" opacity="1" transform="matrix(1 0 0 1 675.222 669.661)">
<tspan x="0" y="44" textLength="26.048">
6</tspan>
</text>
<text x="0" font-family="Avenir-Heavy" y="0" text-anchor="start" vectornator:text="1" fill="#53d246" font-size="44" vectornator:width="78.4453" opacity="1" transform="matrix(1 0 0 1 777.201 671.711)">
<tspan x="0" y="44" textLength="26.048">
1</tspan>
</text>
<text x="0" font-family="Avenir-Heavy" y="0" text-anchor="start" vectornator:text="5" fill="#53d246" font-size="44" vectornator:width="78.4453" opacity="1" transform="matrix(1 0 0 1 872.075 671.738)">
<tspan x="0" y="44" textLength="26.048">
5</tspan>
</text>
<text x="0" font-family="Avenir-Heavy" y="0" text-anchor="middle" vectornator:text="-2" fill="#cdcb46" font-size="44" vectornator:width="78.4453" opacity="1" transform="matrix(1 0 0 1 65.3731 573.166)">
<tspan x="39.2227" y="44" textLength="39.908">
-2</tspan>
</text>
<text x="0" font-family="Avenir-Heavy" y="0" text-anchor="middle" vectornator:text="1" fill="#cdcb46" font-size="44" vectornator:width="78.4453" opacity="1" transform="matrix(1 0 0 1 168.274 572.75)">
<tspan x="39.2227" y="44" textLength="26.048">
1</tspan>
</text>
<text x="0" font-family="Avenir-Heavy" y="0" text-anchor="middle" vectornator:text="-3" fill="#cdcb46" font-size="44" vectornator:width="78.4453" opacity="1" transform="matrix(1 0 0 1 263.678 573.667)">
<tspan x="39.2227" y="44" textLength="39.908">
-3</tspan>
</text>
<text x="0" font-family="Avenir-Heavy" y="0" text-anchor="middle" vectornator:text="4" fill="#cdcb46" font-size="44" vectornator:width="78.4453" opacity="1" transform="matrix(1 0 0 1 362.27 575.355)">
<tspan x="39.2227" y="44" textLength="26.048">
4</tspan>
</text>
<text x="0" font-family="Avenir-Heavy" y="0" text-anchor="middle" vectornator:text="-1" fill="#cdcb46" font-size="44" vectornator:width="78.4453" opacity="1" transform="matrix(1 0 0 1 458.945 572.298)">
<tspan x="39.2227" y="44" textLength="39.908">
-1</tspan>
</text>
<text x="0" font-family="Avenir-Heavy" y="0" text-anchor="middle" vectornator:text="2" fill="#cdcb46" font-size="44" vectornator:width="78.4453" opacity="1" transform="matrix(1 0 0 1 558.034 574.529)">
<tspan x="39.2227" y="44" textLength="26.048">
2</tspan>
</text>
<text x="0" font-family="Avenir-Heavy" y="0" text-anchor="middle" vectornator:text="1" fill="#cdcb46" font-size="44" vectornator:width="78.4453" opacity="1" transform="matrix(1 0 0 1 653.938 573.513)">
<tspan x="39.2227" y="44" textLength="26.048">
1</tspan>
</text>
<text x="0" font-family="Avenir-Heavy" y="0" text-anchor="middle" vectornator:text="-5" fill="#cdcb46" font-size="44" vectornator:width="78.4453" opacity="1" transform="matrix(1 0 0 1 748.962 573.977)">
<tspan x="39.2227" y="44" textLength="39.908">
-5</tspan>
</text>
<text x="0" font-family="Avenir-Heavy" y="0" text-anchor="middle" vectornator:text="4" fill="#cdcb46" font-size="44" vectornator:width="78.4453" opacity="1" transform="matrix(1 0 0 1 849.251 571.733)">
<tspan x="39.2227" y="44" textLength="26.048">
4</tspan>
</text>
<path stroke="#55c033" stroke-width="7.06" d="M51.0452+655.567L946.493+655.567L946.493+762.455L51.0452+762.455L51.0452+655.567Z" fill="#88ab84" stroke-linecap="round" fill-opacity="0" opacity="1" stroke-linejoin="round"/>
<path stroke="#ffffff" stroke-opacity="0" stroke-width="0.1" d="M48.2782+763.104L352.562+763.104L352.562+859.564L48.2782+859.564L48.2782+763.104Z" fill="#43d134" stroke-linecap="round" opacity="1" stroke-linejoin="round"/>
<text x="0" font-family="Avenir-Heavy" y="0" text-anchor="start" vectornator:text="Solutions&#x20;to&#x20;the&#x20;subproblems" fill="#000000" font-size="27" vectornator:width="294.68" opacity="1" transform="matrix(1 0 0 1 93.9904 770.998)">
<tspan x="0" y="27" textLength="208.413">
Solutions to the </tspan>
<tspan x="0" y="64" textLength="163.485">
subproblems</tspan>
</text>
<text x="0" font-family="Avenir-Heavy" y="0" text-anchor="start" vectornator:text="Text" fill="#000000" font-size="44" vectornator:width="20" opacity="1" transform="matrix(1 0 0 1 597.897 950.263)"/>
</g>
</svg>
